# This file uses centimeters as units for non-parametric coordinates.

mtllib BaseCart.mtl
g default
v 1.394295 -0.003638 0.000084
v 0.204775 0.008673 0.000611
v 2.945001 0.141615 -0.000065
v -1.135959 0.106027 -0.000326
v 3.410236 0.521796 0.001965
v 3.016205 0.839927 0.665275
v -0.521024 0.069856 0.611039
v 0.202402 0.996362 1.349130
g topoSymmetrySet
v -1.466130 0.841280 -0.000601
g default
v 2.100404 0.138258 0.860854
v -0.564722 1.745211 0.864347
v 3.165421 1.152418 -0.000700
g topoSymmetrySet
v -1.178206 1.796275 0.002896
g default
v 1.863812 1.805144 -0.000124
v 1.304363 1.450352 1.117256
v 0.340501 1.996686 0.000551
v -0.970136 0.591265 0.884026
v -1.190057 1.424148 0.654267
v 0.558368 0.075769 1.103627
v 3.005400 0.839927 -0.666525
v -0.535348 0.069856 -0.609207
v 0.185555 0.996362 -1.347872
v 2.089834 0.138258 -0.861291
v -0.579421 1.745211 -0.854497
v 1.291605 1.450352 -1.116996
v -0.985497 0.591265 -0.887811
v -1.207088 1.424148 -0.656003
v 0.543261 0.075769 -1.102664
vt 0.475000 0.050000
vt 0.525000 0.000000
vt 0.900000 0.075000
vt 0.450000 0.225000
vt 0.950000 0.281250
vt 0.850000 0.450000
vt 0.600000 0.150000
vt 0.600000 0.500000
vt 0.450000 0.500000
vt 0.750000 0.300000
vt 0.550000 0.600000
vt 0.950000 0.587500
vt 0.450000 0.693750
vt 0.950000 0.781250
vt 0.750000 0.650000
vt 0.502778 0.966667
vt 0.875000 0.983333
vt 0.925000 0.000000
vt 0.524596 0.325943
vt 0.489054 0.539054
vt 0.670980 0.220980
vt 0.600000 0.150000
vt 0.475000 0.050000
vt 0.670980 0.220980
vt 0.450000 0.225000
vt 0.900000 0.075000
vt 0.750000 0.300000
vt 0.925000 0.000000
vt 0.850000 0.450000
vt 0.950000 0.281250
vt 0.600000 0.500000
vt 0.524596 0.325943
vt 0.750000 0.650000
vt 0.950000 0.587500
vt 0.550000 0.600000
vt 0.450000 0.693750
vt 0.489054 0.539054
vt 0.950000 0.781250
vt 0.502778 0.966667
vt 0.875000 0.983333
vt 0.450000 0.500000
vt 0.525000 0.000000
vn -0.234988 -0.903406 0.358663
vn -0.025400 -0.997935 0.058993
vn 0.011816 -0.721253 0.692571
vn -0.604448 -0.720903 0.339029
vn 0.429394 -0.789690 0.438189
vn 0.253307 -0.627029 0.736662
vn 0.049966 -0.994055 0.096741
vn 0.551902 0.249042 0.795853
vn 0.753961 -0.292539 0.588187
vn -0.081280 0.070976 0.994161
vn -0.574625 -0.257374 0.776895
vn 0.242776 0.568536 0.786019
vn 0.537741 0.710515 0.453875
vn -0.193935 0.774385 0.602260
vn -0.502916 0.832103 0.233837
vn -0.764646 0.292016 0.574494
vn 0.303072 0.853633 0.423625
vn 0.066753 0.940325 0.333666
vn -0.918476 -0.133295 0.372336
vn -0.235106 -0.904536 -0.355724
vn 0.011940 -0.720953 -0.692881
vn -0.025163 -0.997958 -0.058704
vn -0.604160 -0.726297 -0.327845
vn 0.430086 -0.786347 -0.443492
vn 0.050130 -0.993978 -0.097440
vn 0.252058 -0.626654 -0.737409
vn 0.549247 0.248090 -0.797984
vn 0.751552 -0.289339 -0.592834
vn -0.081948 0.075235 -0.993793
vn -0.576965 -0.256213 -0.775543
vn 0.240563 0.567320 -0.787577
vn 0.538346 0.705716 -0.460597
vn -0.194209 0.775648 -0.600543
vn -0.501275 0.835958 -0.223379
vn -0.768122 0.298041 -0.566709
vn 0.303370 0.851831 -0.427026
vn 0.065946 0.939538 -0.336035
vn -0.925071 -0.135445 -0.354821
s 1
g pSphere1
usemtl phong1SG
f 7/7/1 2/1/2 19/21/3
f 7/7/1 4/4/4 2/1/2
f 3/3/5 10/10/6 1/18/7
f 10/10/6 3/3/5 6/6/8
f 3/3/5 5/5/9 6/6/8
f 8/8/10 19/21/3 10/10/6
f 4/4/4 7/7/1 17/19/11
f 10/10/6 15/15/12 8/8/10
f 10/10/6 6/6/8 15/15/12
f 5/5/9 12/12/13 6/6/8
f 8/8/10 15/15/12 11/11/14
f 13/13/15 18/20/16 11/11/14
f 12/12/13 14/14/17 6/6/8
f 6/6/8 14/14/17 15/15/12
f 13/13/15 11/11/14 16/16/18
f 11/11/14 15/15/12 16/16/18
f 15/15/12 14/14/17 16/17/18
f 11/11/14 17/19/11 8/8/10
f 4/4/4 17/19/11 9/9/19
f 18/20/16 17/19/11 11/11/14
f 9/9/19 18/20/16 13/13/15
f 9/9/19 17/19/11 18/20/16
f 2/1/2 1/2/7 19/21/3
f 1/18/7 10/10/6 19/21/3
f 17/19/11 19/21/3 8/8/10
f 7/7/1 19/21/3 17/19/11
s 5
f 21/22/20 28/24/21 2/23/22
f 21/22/20 2/23/22 4/25/23
f 3/26/24 1/28/25 23/27/26
f 23/27/26 20/29/27 3/26/24
f 3/26/24 20/29/27 5/30/28
f 22/31/29 23/27/26 28/24/21
f 4/25/23 26/32/30 21/22/20
f 23/27/26 22/31/29 25/33/31
f 23/27/26 25/33/31 20/29/27
f 5/30/28 20/29/27 12/34/32
f 22/31/29 24/35/33 25/33/31
f 13/36/34 24/35/33 27/37/35
f 12/34/32 20/29/27 14/38/36
f 20/29/27 25/33/31 14/38/36
f 13/36/34 16/39/37 24/35/33
f 24/35/33 16/39/37 25/33/31
f 25/33/31 16/40/37 14/38/36
f 24/35/33 22/31/29 26/32/30
f 4/25/23 9/41/38 26/32/30
f 27/37/35 24/35/33 26/32/30
f 9/41/38 13/36/34 27/37/35
f 9/41/38 27/37/35 26/32/30
f 2/23/22 28/24/21 1/42/25
f 1/28/25 28/24/21 23/27/26
f 26/32/30 22/31/29 28/24/21
f 21/22/20 26/32/30 28/24/21
